<svg width="21" height="21" viewBox="0 0 21 21" fill="none" xmlns="http://www.w3.org/2000/svg">
<path d="M9.57764 1.2022C9.92035 0.383961 11.0797 0.383961 11.4224 1.2022L13.5863 6.36882C13.7305 6.71305 14.0544 6.94835 14.4263 6.9791L20.0088 7.44058C20.8929 7.51367 21.2511 8.61624 20.5788 9.19503L16.3338 12.8497C16.0509 13.0932 15.9272 13.4739 16.0129 13.8371L17.2991 19.2889C17.5028 20.1524 16.5649 20.8338 15.8067 20.3732L11.0191 17.4653C10.7002 17.2716 10.2998 17.2716 9.98087 17.4653L5.19331 20.3732C4.43511 20.8338 3.49721 20.1524 3.7009 19.2889L4.98707 13.8371C5.07276 13.4739 4.94905 13.0932 4.66622 12.8497L0.421184 9.19503C-0.251104 8.61624 0.107142 7.51367 0.991237 7.44058L6.57368 6.9791C6.94562 6.94835 7.26949 6.71305 7.41366 6.36882L9.57764 1.2022Z" fill="#FF9900"/>
</svg>
