<svg width="100" height="100" viewBox="0 0 100 100" fill="none" xmlns="http://www.w3.org/2000/svg">
<rect width="100" height="100" fill="white"/>
<path fillRule="evenodd" clipRule="evenodd" d="M46.6535 50.9407C47.3427 51.712 47.9292 52.5519 48.4128 53.4603C48.5063 58.4425 48.8461 62.5545 49.4323 65.7963C48.5912 68.5292 46.9774 70.8931 44.5908 72.8879C44.4642 72.9934 44.3357 73.0971 44.2053 73.1989C43.7753 72.8363 43.3537 72.4576 42.9406 72.0629C41.5732 70.6955 40.3639 69.1437 39.3125 67.4076C39.366 66.9658 39.3927 66.5098 39.3927 66.0397C39.3927 63.3445 38.7327 61.2542 37.4125 59.7691C36.9487 59.228 36.3864 58.6936 35.7257 58.166C35.2551 55.8192 35.0198 53.2732 35.0198 50.5281C35.0198 48.084 35.2107 45.794 35.5925 43.6582C40.7039 45.9274 44.3909 48.3549 46.6535 50.9407ZM36.0916 59.7691C36.388 60.9212 36.7458 62.0213 37.165 63.0694C37.6149 64.1941 38.1137 65.2616 38.6615 66.2719C38.7914 63.0489 37.165 61.0067 36.0916 59.7691ZM46.4059 34.1915L43.4376 28.7615C44.7619 27.5193 46.1706 26.4457 47.6636 25.5407L47.231 34.1915H46.4059Z" fill="black"/>
<path d="M51.2739 77.4259C54.4092 78.636 57.6546 79.2411 61.0099 79.2411C64.3652 79.2411 67.5831 78.636 70.6634 77.4259C73.7987 76.1608 76.5765 74.3456 78.9967 71.9803C81.4719 69.5601 83.4246 66.5623 84.8548 62.9869C86.2849 59.3565 87 55.2036 87 50.5281C87 45.7426 86.2849 41.5622 84.8548 37.9868C83.4246 34.3565 81.4719 31.3587 78.9967 28.9934C76.5765 26.5732 73.7987 24.7855 70.6634 23.6304C67.5831 22.4203 64.3652 21.8152 61.0099 21.8152C57.7096 21.8152 54.4917 22.4478 51.3564 23.7129C50.3984 24.0893 49.4695 24.5242 48.57 25.0177L47.7261 36.6204H46.6535L42.3992 29.7788C40.2175 32.0364 38.4728 34.7999 37.165 38.0694C36.6184 39.4358 36.1763 40.8866 35.8386 42.4218C35.7493 42.828 35.6672 43.2402 35.5925 43.6582C40.7039 45.9274 44.3909 48.3549 46.6535 50.9407C47.3427 51.712 47.9292 52.5519 48.4128 53.4603C48.395 52.5143 48.3861 51.5369 48.3861 50.5281C48.3861 43.5974 48.7987 38.1794 49.6238 34.274C50.5038 30.3136 51.879 27.5358 53.7492 25.9406C55.6194 24.2904 58.0396 23.4654 61.0099 23.4654C64.0352 23.4654 66.483 24.2904 68.3531 25.9406C70.2233 27.5358 71.571 30.3136 72.396 34.274C73.2761 38.1794 73.7162 43.5974 73.7162 50.5281C73.7162 57.4038 73.2761 62.8219 72.396 66.7823C71.571 70.6877 70.2233 73.4655 68.3531 75.1157C66.483 76.7108 64.0352 77.5084 61.0099 77.5084C58.0396 77.5084 55.6194 76.7108 53.7492 75.1157C52.1148 73.6735 50.8584 71.3702 49.9802 68.2057C49.0234 69.9551 47.7403 71.3185 46.6402 72.4874C46.1189 73.0413 45.6387 73.5516 45.2538 74.0385C47.1125 75.4503 49.1192 76.5794 51.2739 77.4259Z" fill="black"/>
<path d="M39.3927 66.0397C39.3927 63.3445 38.7327 61.2542 37.4125 59.7691C36.9487 59.228 36.3864 58.6936 35.7257 58.166C35.835 58.7111 35.957 59.2455 36.0916 59.7691C37.165 61.0067 38.7914 63.0489 38.6615 66.2719C38.8713 66.6589 39.0883 67.0374 39.3125 67.4076C39.366 66.9658 39.3927 66.5098 39.3927 66.0397Z" fill="black"/>
<path d="M49.9802 68.2057C49.8535 67.7492 49.7347 67.2747 49.6238 66.7823C49.5573 66.4631 49.4934 66.1344 49.4323 65.7963C48.5912 68.5292 46.9774 70.8931 44.5908 72.8879C44.4642 72.9934 44.3357 73.0971 44.2053 73.1989C44.5494 73.4891 44.8989 73.769 45.2538 74.0385C45.6387 73.5516 46.1189 73.0413 46.6402 72.4874C47.7403 71.3185 49.0234 69.9551 49.9802 68.2057Z" fill="black"/>
<path fillRule="evenodd" clipRule="evenodd" d="M19.8383 76.2708C22.9736 77.0409 26.0539 77.4259 29.0792 77.4259C35.0652 77.4259 39.8258 76.2223 43.3608 73.8151C42.4919 73.4839 39.7176 70.2786 38.9893 68.9894C38.5284 70.5523 37.6728 71.9068 36.4224 73.053C34.4972 74.8681 31.857 75.7757 28.5016 75.7757C27.2365 75.7757 26.0814 75.6932 25.0363 75.5282C24.0462 75.3082 23.0011 74.9231 21.901 74.3731C20.3608 73.713 19.1507 72.8054 18.2706 71.6503C17.3905 70.4402 16.5655 69.065 15.7954 67.5249L13.2376 62.1618H12.4125L12 73.383C14.0902 74.5931 16.703 75.5557 19.8383 76.2708ZM39.3125 67.4076C40.3639 69.1437 41.5732 70.6955 42.9406 72.0629C43.3537 72.4576 43.7753 72.8363 44.2053 73.1989C44.3357 73.0971 44.4642 72.9934 44.5908 72.8879C46.9774 70.8931 48.5912 68.5292 49.4323 65.7963C48.8461 62.5545 48.5063 58.4425 48.4128 53.4603C47.9292 52.5519 47.3427 51.712 46.6535 50.9407C44.3909 48.3549 40.7039 45.9274 35.5925 43.6582C35.2107 45.794 35.0198 48.084 35.0198 50.5281C35.0198 53.2732 35.2551 55.8192 35.7257 58.166C36.3864 58.6936 36.9487 59.228 37.4125 59.7691C38.7327 61.2542 39.3927 63.3445 39.3927 66.0397C39.3927 66.5098 39.366 66.9658 39.3125 67.4076ZM50.1188 61.0067C50.1188 62.3452 49.9779 63.6164 49.6961 64.8203C49.3611 64.5188 48.742 55.4529 48.7604 54.1637C49.666 56.1428 50.1188 58.4238 50.1188 61.0067ZM33.9163 56.8912C33.0689 56.3581 32.1166 55.8322 31.0594 55.3136L27.6766 53.8285C22.9461 51.7383 19.2332 49.3455 16.538 46.6502C13.8977 43.9 12.5776 40.2696 12.5776 35.7591C12.5776 32.5138 13.4026 29.7085 15.0528 27.3433C16.758 24.978 19.0957 23.1628 22.066 21.8977C25.0913 20.6326 28.6117 20 32.6271 20C35.5424 20 38.2926 20.385 40.8779 21.1551C43.5182 21.9252 45.8009 22.9703 47.7261 24.2904L47.6636 25.5407L47.231 34.1915H46.4059L43.4376 28.7615L43.0231 28.0033C42.088 26.0781 41.1529 24.7305 40.2178 23.9604C39.2827 23.1353 38.2101 22.5578 37 22.2277C36.2849 22.0077 35.6249 21.8702 35.0198 21.8152C34.4147 21.7052 33.6447 21.6502 32.7096 21.6502C29.9043 21.6502 27.5391 22.4753 25.6139 24.1254C23.6887 25.7206 22.7261 27.8933 22.7261 30.6436C22.7261 33.4489 23.4686 35.7041 24.9538 37.4093C26.4389 39.0595 28.6117 40.5446 31.4719 41.8647L34.5608 43.2078C33.0755 46.8262 33.5587 52.4311 33.8077 55.3204C33.8691 56.0323 33.9163 56.5793 33.9163 56.8912Z" fill="black"/>
</svg>
